<svg xmlns="http://www.w3.org/2000/svg" viewBox="0 0 100.1 100.1"><path d="M45.21,100.1h9.67c2.74,0,4.59-1.52,5.23-4.4l2.34-10.06c1.42-.53,2.83-1,4.15-1.61l8.84,5.57A4.91,4.91,0,0,0,82.13,89l6.79-6.78a5,5,0,0,0,.68-6.79L84.08,66.6c.54-1.37,1-2.73,1.56-4.15l10.11-2.34c2.88-.64,4.35-2.49,4.35-5.23V45.26c0-2.73-1.47-4.59-4.35-5.22L85.64,37.7c-.53-1.47-1-2.84-1.56-4.2l5.52-8.79A4.93,4.93,0,0,0,89,17.92l-6.83-6.79a5,5,0,0,0-6.69-.63L66.6,16.06c-1.32-.53-2.73-1-4.15-1.56L60.11,4.39C59.47,1.46,57.62,0,54.88,0H45.21C42.48,0,40.67,1.46,40,4.39L37.65,14.45c-1.42.54-2.84,1-4.2,1.61L24.61,10.5a5,5,0,0,0-6.69.63l-6.84,6.79c-2,1.95-2.19,4.35-.63,6.79L16,33.5c-.54,1.36-1,2.73-1.57,4.2L4.39,40C1.46,40.67,0,42.53,0,45.26v9.62c0,2.74,1.46,4.59,4.39,5.23l10,2.34c.54,1.42,1,2.78,1.62,4.15l-5.57,8.79a5,5,0,0,0,.68,6.79L17.92,89a5,5,0,0,0,6.74.64L33.45,84c1.36.59,2.78,1.08,4.2,1.61L40,95.7C40.67,98.58,42.48,100.1,45.21,100.1ZM50.1,67.72A17.7,17.7,0,1,1,67.82,50,17.81,17.81,0,0,1,50.1,67.72Z"/></svg>