<svg xmlns="http://www.w3.org/2000/svg" xmlns:xlink="http://www.w3.org/1999/xlink" viewBox="0 0 183.74 87.01"><defs><style>.a{fill:none;}.b{clip-path:url(#a);}.c{fill:url(#b);}</style><clipPath id="a" transform="translate(0 0)"><path class="a" d="M92,42.28c10.54,0,19.33-9.32,19.33-21.43C111.33,9.13,102.49,0,92,0S72.66,9.23,72.71,20.9C72.71,33,81.45,42.28,92,42.28ZM35.65,43.36c9.18,0,16.79-8.11,16.79-18.65,0-10.21-7.66-18.12-16.79-18.12s-16.85,8-16.8,18.21C18.81,35.25,26.47,43.36,35.65,43.36Zm112.45,0c9.23,0,16.84-8.11,16.84-18.56,0-10.2-7.71-18.21-16.84-18.21s-16.8,7.91-16.8,18.12c0,10.54,7.62,18.65,16.8,18.65ZM7.86,87H47.07c-5.22-5.86,0-20.65,10.75-29.25-5.42-4-12.65-6.93-22.22-6.93C13.68,50.83,0,66.83,0,80.47,0,84.88,2.4,87,7.86,87Zm168.07,0c5.47,0,7.81-2.15,7.81-6.54,0-13.63-13.67-29.64-35.54-29.64-9.57,0-16.8,2.93-22.22,6.93,10.69,8.6,15.92,23.39,10.74,29.25ZM60.45,87h63c6.64,0,9.38-1.9,9.38-6.15C132.83,68.31,117.15,51,92,51S51.09,68.31,51.09,80.86c0,4.25,2.72,6.15,9.36,6.15Z"/></clipPath><linearGradient id="b" x1="-204.66" y1="253.03" x2="-204.35" y2="253.03" gradientTransform="matrix(595.28, 0, 0, -419.53, 121826.49, 106195.8)" gradientUnits="userSpaceOnUse"><stop offset="0" stop-color="red"/><stop offset="0.33" stop-color="#ff0"/><stop offset="0.5" stop-color="lime"/><stop offset="0.67" stop-color="aqua"/><stop offset="0.83" stop-color="blue"/><stop offset="1" stop-color="#f0f"/></linearGradient></defs><g class="b"><rect class="c" width="183.74" height="87.01"/></g></svg>