<svg xmlns="http://www.w3.org/2000/svg" viewBox="0 0 183.74 87.01"><path d="M1153.19,1090.4c10.54,0,19.33-9.32,19.33-21.43,0-11.72-8.84-20.85-19.33-20.85s-19.34,9.23-19.29,20.9C1133.9,1081.08,1142.64,1090.4,1153.19,1090.4Zm-56.35,1.08c9.18,0,16.79-8.11,16.79-18.65,0-10.21-7.66-18.12-16.79-18.12s-16.85,8-16.8,18.21C1080,1083.37,1087.66,1091.48,1096.84,1091.48Zm112.45,0c9.23,0,16.84-8.11,16.84-18.56,0-10.2-7.71-18.21-16.84-18.21s-16.8,7.91-16.8,18.12C1192.49,1083.37,1200.11,1091.48,1209.29,1091.48Zm-140.24,43.65h39.21c-5.22-5.86,0-20.65,10.75-29.25-5.42-4-12.65-6.93-22.22-6.93-21.92,0-35.6,16-35.6,29.64C1061.19,1133,1063.59,1135.13,1069.05,1135.13Zm168.07,0c5.47,0,7.81-2.15,7.81-6.54,0-13.63-13.67-29.64-35.54-29.64-9.57,0-16.8,2.93-22.22,6.93,10.69,8.6,15.92,23.39,10.74,29.25Zm-115.48,0h63c6.64,0,9.38-1.9,9.38-6.15,0-12.55-15.68-29.84-40.87-29.84s-40.87,17.29-40.87,29.84C1112.27,1133.23,1115,1135.13,1121.64,1135.13Z" transform="translate(-1061.19 -1048.12)"/></svg>